<svg width="98" height="75" viewBox="0 0 98 75" fill="none" xmlns="http://www.w3.org/2000/svg">
<path d="M8.98274 64.6759C5.97007 62.9391 2.97582 61.2919 0 59.7342C12.5454 55.6767 25.5406 53.1831 38.6928 52.3097V67.4334C25.5406 68.3068 12.5454 70.8004 0 74.8579C2.97415 71.3736 5.9684 67.9795 8.98274 64.6759Z" fill="black"/>
<path d="M89.0099 64.5158C92.0243 62.7665 95.021 61.1063 98.0002 59.5351C85.4399 55.5291 72.4363 53.0885 59.2822 52.2681V67.3918C72.4355 68.2124 85.4382 70.653 97.9977 74.6588C95.0218 71.1896 92.0259 67.8086 89.0099 64.5158Z" fill="black"/>
<path d="M11.1152 52.858C20.287 52.0149 29.5146 51.9787 38.6927 52.7496V67.8733C29.5146 67.1024 20.287 67.1387 11.1152 67.9817V52.858Z" fill="#011014"/>
<path d="M59.2822 52.7092V67.8329C68.4613 67.0262 77.6931 67.0262 86.8722 67.8329V52.7092C77.6931 51.9025 68.4613 51.9025 59.2822 52.7092Z" fill="#011014"/>
<path d="M84.3688 39.089C84.8038 38.4949 85.0384 37.777 85.0384 37.0397C85.0384 36.3025 84.8038 35.5846 84.3688 34.9905L83.0814 33.226C82.7542 32.7814 82.5379 32.2646 82.4505 31.7188C82.363 31.1731 82.4071 30.6143 82.579 30.0891L83.2711 28.0222C83.5019 27.3223 83.5039 26.5667 83.2769 25.8655C83.0498 25.1643 82.6056 24.5542 82.0088 24.1241L80.2417 22.8499C79.7946 22.5275 79.4309 22.1025 79.1809 21.6103C78.9309 21.1181 78.802 20.573 78.8048 20.0205L78.8161 17.8377C78.8199 17.1004 78.589 16.3812 78.157 15.7848C77.7251 15.1884 77.1147 14.7459 76.4147 14.5218L74.3386 13.8589C73.8142 13.6904 73.3376 13.3988 72.9483 13.0081C72.559 12.6175 72.2683 12.1391 72.1004 11.613L71.4385 9.53348C71.215 8.8312 70.774 8.2188 70.1797 7.7854C69.5854 7.352 68.8687 7.12021 68.1341 7.12377L65.9575 7.13511C65.4068 7.1382 64.8635 7.00906 64.3727 6.75846C63.882 6.50786 63.4581 6.14308 63.1365 5.69458L61.8667 3.92006C61.4373 3.32236 60.8289 2.87782 60.1302 2.65114C59.4315 2.42446 58.6789 2.42747 57.982 2.65975L55.9147 3.34536C55.3919 3.5186 54.8354 3.56391 54.2916 3.47754C53.7478 3.39116 53.2325 3.17559 52.7885 2.8488L51.0302 1.55572C50.438 1.11908 49.7222 0.883606 48.9873 0.883606C48.2524 0.883606 47.5367 1.11908 46.9445 1.55572L45.1861 2.8488C44.7435 3.1722 44.2305 3.38533 43.6896 3.47057C43.1486 3.55582 42.5952 3.51074 42.0751 3.33906L40.0027 2.65345C39.3052 2.42182 38.5522 2.41978 37.8534 2.64761C37.1546 2.87544 36.5466 3.32125 36.118 3.92006L34.8469 5.69332C34.5256 6.14179 34.102 6.50658 33.6114 6.75719C33.1209 7.0078 32.5777 7.13695 32.0273 7.13385L29.8507 7.12251C29.1159 7.11876 28.3992 7.35047 27.8048 7.78389C27.2105 8.21732 26.7695 8.82983 26.5462 9.53222L25.8843 11.6117C25.7166 12.1381 25.426 12.6167 25.0367 13.0076C24.6474 13.3984 24.1706 13.6903 23.6462 13.8589L21.5725 14.523C20.8726 14.7471 20.2622 15.1896 19.8302 15.786C19.3983 16.3824 19.1674 17.1017 19.1711 17.8389L19.1824 20.0218C19.1853 20.5742 19.0563 21.1193 18.8064 21.6115C18.5564 22.1038 18.1927 22.5288 17.7456 22.8512L15.9784 24.1253C15.3828 24.5563 14.9398 25.1668 14.7139 25.8679C14.488 26.569 14.491 27.3242 14.7224 28.0235L15.4057 30.0954C15.5776 30.6206 15.6217 31.1794 15.5343 31.7251C15.4469 32.2709 15.2305 32.7877 14.9033 33.2323L13.6159 34.9968C13.1809 35.5909 12.9463 36.3088 12.9463 37.046C12.9463 37.7833 13.1809 38.5012 13.6159 39.0953L14.9033 40.8597C15.2304 41.3044 15.4467 41.8213 15.5341 42.367C15.6215 42.9127 15.5775 43.4715 15.4057 43.9967L14.7224 46.0699C14.4912 46.7692 14.4883 47.5243 14.7141 48.2254C14.94 48.9264 15.3829 49.5369 15.9784 49.968L17.7456 51.2422C18.1915 51.5636 18.5546 51.9872 18.8045 52.4778C19.0544 52.9684 19.184 53.5118 19.1824 54.0627L19.1711 56.2456C19.1676 56.9828 19.3986 57.7019 19.8305 58.2983C20.2624 58.8947 20.8727 59.3372 21.5725 59.5615L23.6462 60.2257C24.1706 60.3936 24.6473 60.685 25.0367 61.0754C25.426 61.4659 25.7167 61.9441 25.8843 62.4703L26.5462 64.5498C26.7695 65.2522 27.2105 65.8647 27.8048 66.2981C28.3992 66.7315 29.1159 66.9632 29.8507 66.9595L32.0273 66.9482C32.5778 66.9453 33.121 67.0747 33.6116 67.3255C34.1021 67.5763 34.5257 67.9413 34.8469 68.39L36.118 70.1632C36.5475 70.7609 37.1558 71.2055 37.8545 71.4321C38.5533 71.6588 39.3058 71.6558 40.0027 71.4235L42.0751 70.7417C42.5978 70.5677 43.1544 70.522 43.6983 70.6084C44.2423 70.6948 44.7576 70.9108 45.2012 71.2383L46.9596 72.5301C47.5518 72.9667 48.2675 73.2022 49.0024 73.2022C49.7373 73.2022 50.453 72.9667 51.0453 72.5301L52.8036 71.2383C53.2473 70.9109 53.7626 70.695 54.3065 70.6086C54.8504 70.5222 55.407 70.5678 55.9297 70.7417L57.9971 71.4273C58.694 71.6596 59.4465 71.6626 60.1453 71.4359C60.844 71.2092 61.4523 70.7647 61.8818 70.167L63.1516 68.3937C63.4731 67.9451 63.8969 67.5801 64.3877 67.3293C64.8784 67.0785 65.4218 66.9491 65.9725 66.9519L68.1491 66.9633C68.8838 66.9668 69.6005 66.735 70.1948 66.3016C70.7891 65.8682 71.2301 65.2558 71.4536 64.5536L72.1155 62.4741C72.2831 61.9479 72.5738 61.4697 72.9631 61.0792C73.3525 60.6887 73.8292 60.3974 74.3536 60.2294L76.4273 59.5653C77.1271 59.341 77.7374 58.8985 78.1693 58.3021C78.6012 57.7057 78.8322 56.9866 78.8287 56.2494L78.8023 54.0627C78.7994 53.5103 78.9283 52.9652 79.1782 52.4729C79.4282 51.9807 79.792 51.5556 80.2392 51.2333L82.0063 49.9592C82.6039 49.5291 83.0489 48.9187 83.2764 48.217C83.5039 47.5154 83.502 46.7591 83.2711 46.0585L82.5853 43.9803C82.4135 43.4551 82.3695 42.8963 82.4569 42.3506C82.5443 41.8049 82.7606 41.2881 83.0877 40.8434L84.3688 39.089ZM82.108 44.1441L82.79 46.2161C82.9893 46.8139 82.9922 47.4601 82.7982 48.0597C82.6042 48.6593 82.2236 49.1807 81.7124 49.5471L79.9453 50.8212C79.4334 51.1908 79.017 51.6779 78.7308 52.2418C78.4446 52.8056 78.2969 53.43 78.2999 54.0627L78.3112 56.2456C78.3162 56.876 78.1195 57.4914 77.7501 58.0014C77.3807 58.5113 76.8581 58.889 76.259 59.0788L74.1866 59.7417C73.586 59.9348 73.04 60.2689 72.5939 60.7163C72.1479 61.1637 71.8146 61.7114 71.6219 62.314L70.9625 64.3973C70.7737 64.9957 70.3995 65.5179 69.8944 65.8881C69.3893 66.2583 68.7796 66.457 68.1542 66.4554L65.9386 66.4415C65.3115 66.4422 64.6935 66.5922 64.1354 66.8792C63.5773 67.1662 63.0951 67.5821 62.7283 68.0925L61.4585 69.8658C61.0926 70.3779 60.5732 70.7593 59.9761 70.9545C59.379 71.1497 58.7354 71.1484 58.139 70.9509L56.0729 70.2653C55.4741 70.0668 54.8367 70.0148 54.2138 70.1137C53.591 70.2126 53.0007 70.4594 52.4921 70.8337L50.7338 72.1268C50.2277 72.4994 49.6163 72.7003 48.9886 72.7003C48.3609 72.7003 47.7495 72.4994 47.2434 72.1268L45.4851 70.8337C44.9765 70.4594 44.3862 70.2126 43.7634 70.1137C43.1405 70.0148 42.5031 70.0668 41.9043 70.2653L39.8457 70.9509C39.2495 71.149 38.6057 71.1508 38.0084 70.9561C37.411 70.7613 36.8913 70.3802 36.5249 69.8683L35.2551 68.0925C34.8883 67.5821 34.4061 67.1663 33.848 66.8793C33.2899 66.5923 32.672 66.4423 32.0449 66.4415L29.8331 66.4529C29.2079 66.4549 28.5983 66.2566 28.0932 65.8868C27.5881 65.5171 27.2138 64.9953 27.0247 64.3973L26.3628 62.3165C26.1699 61.714 25.8366 61.1664 25.3906 60.7191C24.9445 60.2717 24.3986 59.9375 23.7981 59.7442L21.7283 59.0788C21.1292 58.889 20.6065 58.5113 20.2371 58.0014C19.8677 57.4914 19.671 56.876 19.676 56.2456L19.6873 54.0627C19.6899 53.4299 19.5419 52.8056 19.2554 52.2418C18.969 51.678 18.5526 51.1909 18.0407 50.8212L16.2736 49.5471C15.7629 49.1802 15.3828 48.6588 15.1891 48.0593C14.9954 47.4598 14.9982 46.8138 15.1972 46.2161L15.8805 44.1441C16.0783 43.5432 16.13 42.9036 16.0315 42.2786C15.933 41.6536 15.687 41.0612 15.314 40.551L14.0254 38.7865C13.6515 38.28 13.4498 37.6663 13.4498 37.036C13.4498 36.4056 13.6515 35.792 14.0254 35.2854L15.314 33.521C15.6869 33.0106 15.9328 32.4183 16.0314 31.7933C16.1299 31.1683 16.0782 30.5287 15.8805 29.9278L15.1972 27.8634C14.9984 27.2656 14.9959 26.6196 15.19 26.0202C15.3842 25.4209 15.7649 24.8998 16.2761 24.5337L18.0432 23.2595C18.555 22.8897 18.9714 22.4027 19.2578 21.8389C19.5442 21.2751 19.6923 20.6508 19.6898 20.018L19.6785 17.8351C19.673 17.2049 19.8691 16.5896 20.2381 16.0796C20.6071 15.5696 21.1294 15.1919 21.7283 15.002L23.8006 14.3378C24.4009 14.1445 24.9465 13.8103 25.3921 13.3629C25.8377 12.9155 26.1705 12.3679 26.3628 11.7655L27.0247 9.68598C27.2133 9.08738 27.5874 8.56482 28.0925 8.19441C28.5977 7.824 29.2075 7.62508 29.8331 7.62663L32.0449 7.63797C32.672 7.63752 33.2901 7.4876 33.8482 7.20057C34.4063 6.91353 34.8885 6.49758 35.2551 5.98697L36.5249 4.21371C36.8916 3.70217 37.4114 3.32144 38.0087 3.12694C38.606 2.93245 39.2496 2.93435 39.8457 3.13237L41.9118 3.81671C42.312 3.95027 42.731 4.01835 43.1527 4.01836C43.9947 4.01976 44.8149 3.74983 45.4926 3.24831L47.251 1.95524C47.7571 1.58265 48.3684 1.38175 48.9961 1.38175C49.6238 1.38175 50.2352 1.58265 50.7413 1.95524L52.4997 3.24831C53.1773 3.74983 53.9975 4.01976 54.8396 4.01836C55.2613 4.01835 55.6803 3.95027 56.0805 3.81671L58.1465 3.13237C58.7427 2.93435 59.3863 2.93245 59.9835 3.12694C60.5808 3.32144 61.1007 3.70217 61.4673 4.21371L62.7371 5.98697C63.1028 6.49645 63.5836 6.91171 64.1401 7.1987C64.6966 7.48569 65.3129 7.63623 65.9386 7.63797L68.1504 7.62663C68.7766 7.62447 69.3872 7.82309 69.893 8.19353C70.3989 8.56397 70.7736 9.08686 70.9625 9.68598L71.6244 11.7655C71.8168 12.3683 72.1499 12.9162 72.596 13.3636C73.0421 13.8111 73.5883 14.145 74.1891 14.3378L76.2615 15.002C76.8608 15.1914 77.3837 15.569 77.7531 16.079C78.1226 16.589 78.3191 17.2046 78.3137 17.8351L78.3024 20.018C78.2996 20.6509 78.4476 21.2752 78.734 21.8391C79.0204 22.403 79.437 22.89 79.949 23.2595L81.7137 24.5337C82.2248 24.8999 82.6053 25.421 82.7993 26.0204C82.9933 26.6197 82.9905 27.2658 82.7913 27.8634L82.1093 29.9366C81.9116 30.5375 81.8599 31.1771 81.9584 31.8021C82.0569 32.4271 82.3029 33.0195 82.6757 33.5298L83.9644 35.2942C84.3376 35.801 84.5391 36.4146 84.5391 37.0448C84.5391 37.675 84.3376 38.2885 83.9644 38.7953L82.6757 40.5598C82.3042 41.069 82.059 41.6598 81.9605 42.2832C81.862 42.9066 81.913 43.5445 82.1093 44.1441H82.108Z" fill="#011014"/>
<path d="M48.9919 9.36334C33.7594 9.36334 21.4106 21.7547 21.4106 37.0397C21.4106 52.3248 33.7594 64.7162 48.9919 64.7162C64.2243 64.7162 76.5743 52.3248 76.5743 37.0397C76.5743 21.7547 64.2256 9.36334 48.9919 9.36334ZM48.9919 63.5062C34.4226 63.5062 22.6164 51.6593 22.6164 37.0397C22.6164 22.4202 34.4226 10.5732 48.9919 10.5732C63.5612 10.5732 75.3674 22.4202 75.3674 37.0397C75.3674 51.6593 63.5587 63.5062 48.9919 63.5062Z" fill="black"/>
<path d="M53.6388 18.3343C49.9509 17.4111 46.0729 17.6061 42.4955 18.8946C38.918 20.1831 35.8017 22.5073 33.5407 25.5731C31.2796 28.639 29.9755 32.3089 29.7931 36.1185C29.6108 39.9282 30.5584 43.7066 32.5162 46.9758C34.474 50.245 37.354 52.8581 40.792 54.4848C44.2299 56.1114 48.0713 56.6784 51.8305 56.1141C55.5896 55.5499 59.0975 53.8796 61.9106 51.3146C64.7236 48.7497 66.7154 45.4052 67.6341 41.7042C68.8656 36.7429 68.0831 31.4939 65.4586 27.1115C62.8341 22.729 58.5826 19.5718 53.6388 18.3343ZM66.2927 41.369C65.44 44.8039 63.5913 47.9079 60.9804 50.2884C58.3695 52.6689 55.1137 54.2189 51.6248 54.7425C48.1359 55.2661 44.5706 54.7397 41.3799 53.2299C38.1892 51.7201 35.5163 49.2947 33.6994 46.2605C31.8825 43.2262 31.0031 39.7194 31.1725 36.1836C31.3419 32.6478 32.5524 29.2419 34.6511 26.3965C36.7497 23.5511 39.6421 21.3942 42.9624 20.1985C46.2828 19.0028 49.8819 18.822 53.3047 19.679C57.8929 20.8279 61.8386 23.7581 64.2742 27.8255C66.7097 31.893 67.4358 36.7645 66.2927 41.369Z" fill="black"/>
<path d="M27.2986 24.3989L28.8158 24.4985L29.7578 23.2999L30.1333 24.7795L31.5601 25.3076L30.274 26.123L30.2137 27.648L29.0444 26.6725L27.5799 27.0859L28.1426 25.668L27.2986 24.3989Z" fill="#02242E"/>
<path d="M70.7491 24.5085L69.9051 25.7776L70.4677 27.1955L69.0033 26.7808L67.834 27.7563L67.7737 26.2313L66.4875 25.4172L67.9143 24.8878L68.2899 23.4095L69.2319 24.6068L70.7491 24.5085Z" fill="#02242E"/>
<path d="M48.9291 62.2132L48.2559 60.8445L46.7512 60.6252L47.8401 59.559L47.5839 58.0554L48.9291 58.765L50.2755 58.0554L50.0193 59.559L51.1082 60.6252L49.6023 60.8445L48.9291 62.2132Z" fill="#02242E"/>
<path d="M34.401 18.0557C34.3069 18.1264 34.2326 18.2202 34.1853 18.3282C34.138 18.4362 34.1193 18.5546 34.131 18.672C34.171 18.9724 34.3001 19.2539 34.5015 19.4798C34.9754 20.0747 35.436 20.1915 35.8831 19.8302C36.0181 19.722 36.1365 19.5947 36.2348 19.4521C36.3348 19.3085 36.4271 19.1596 36.5111 19.006L37.0738 19.713C36.8913 20.0518 36.6402 20.3484 36.3365 20.5839C35.8718 20.9569 35.4075 21.1073 34.9436 21.0351C34.4798 20.9628 34.0443 20.6687 33.6374 20.1528C33.3986 19.8661 33.23 19.5273 33.1451 19.1635C33.071 18.8384 33.0964 18.4984 33.2179 18.188C33.3542 17.8583 33.5752 17.5709 33.8585 17.355C34.1889 17.0888 34.5755 16.9017 34.9888 16.808L35.2576 17.67C35.1048 17.7062 34.9546 17.7525 34.808 17.8087C34.6602 17.869 34.5229 17.9524 34.401 18.0557Z" fill="#02242E"/>
<path d="M40.3483 18.052L38.2809 19.1522L36.4233 15.6637L38.4907 14.5584L38.8926 15.3146L37.7622 15.917L38.0561 16.4678L39.0986 15.9107L39.5005 16.6669L38.458 17.224L38.8097 17.8919L39.9401 17.2895L40.3483 18.052Z" fill="#02242E"/>
<path d="M42.049 15.8755L42.4747 17.2517L41.4561 17.5681L40.2881 13.7871L41.5227 13.4027C42.5459 13.0835 43.1739 13.2964 43.4067 14.0417C43.5423 14.4803 43.4339 14.8857 43.0814 15.2579L44.689 16.5636L43.5335 16.9228L42.3102 15.7885L42.049 15.8755ZM41.8116 15.1079L42.0025 15.0487C42.3575 14.9378 42.4869 14.7244 42.3906 14.4085C42.3069 14.1488 42.0921 14.0732 41.7463 14.1816L41.5453 14.2434L41.8116 15.1079Z" fill="#02242E"/>
<path d="M47.2799 16.2711L46.2198 16.3795L45.892 13.3131L44.935 13.4165L44.842 12.5469L47.8137 12.2267L47.9066 13.0964L46.9521 13.1997L47.2799 16.2711Z" fill="#02242E"/>
<path d="M49.3901 16.2055L49.5647 12.2507L50.6348 12.2973L50.4602 16.2534L49.3901 16.2055Z" fill="#02242E"/>
<path d="M52.9369 16.5836L51.907 16.3833L52.6606 12.4965L54.949 12.9401L54.7869 13.7832L53.531 13.5387L53.379 14.2811L54.5395 14.5054L54.3838 15.3485L53.2182 15.1192L52.9369 16.5836Z" fill="#02242E"/>
<path d="M55.3784 17.205L56.6884 13.4707L57.6932 13.8274L56.3932 17.5617L55.3784 17.205Z" fill="#02242E"/>
<path d="M59.7993 19.2051L57.7295 18.1048L59.5758 14.6062L61.6456 15.7065L61.245 16.4626L60.1146 15.8627L59.8245 16.4135L60.8694 16.968L60.4688 17.7242L59.4238 17.1697L59.0759 17.8301L60.2063 18.4287L59.7993 19.2051Z" fill="#02242E"/>
<path d="M64.7141 20.3557C64.2955 20.8682 63.835 21.1489 63.3326 21.1976C62.8302 21.2463 62.3224 21.0628 61.8091 20.6469L60.8181 19.8403L63.3012 16.7664L64.3612 17.6297C64.8523 18.0292 65.1311 18.4653 65.1939 18.9354C65.2567 19.4054 65.0997 19.8781 64.7141 20.3557ZM63.835 19.6852C64.0623 19.4029 64.1753 19.1496 64.1741 18.929C64.1684 18.807 64.1348 18.6878 64.0758 18.5809C64.0167 18.474 63.9339 18.3823 63.8337 18.3128L63.5926 18.1174L62.1959 19.8327L62.3805 19.9827C62.6317 20.1877 62.8754 20.2646 63.1115 20.2133C63.3476 20.1621 63.5875 19.986 63.8312 19.6852H63.835Z" fill="#02242E"/>
<path d="M39.9036 59.2124C40.0118 59.2587 40.13 59.2763 40.2469 59.2632C40.3637 59.2502 40.4752 59.2071 40.5706 59.138C40.8094 58.953 40.9879 58.7007 41.083 58.4134C41.3593 57.7042 41.2287 57.2421 40.6911 57.027C40.5304 56.9631 40.3611 56.9236 40.1888 56.9098C40.0146 56.895 39.8398 56.8891 39.665 56.8922L39.9928 56.0503C40.3765 56.0391 40.7582 56.1091 41.1131 56.2557C41.6708 56.4742 42.0334 56.804 42.2008 57.2451C42.3683 57.6862 42.334 58.2109 42.0978 58.8192C41.9699 59.1695 41.7622 59.485 41.4912 59.7405C41.2476 59.9677 40.941 60.1153 40.612 60.1639C40.2592 60.2109 39.9004 60.1631 39.5721 60.0253C39.178 59.8709 38.8238 59.6292 38.5359 59.3183L39.1463 58.6528C39.2538 58.7674 39.3688 58.8748 39.4904 58.9742C39.6149 59.0748 39.7544 59.1551 39.9036 59.2124Z" fill="#02242E"/>
<path d="M36.9258 54.0464L38.9128 55.2891L36.8266 58.649L34.8384 57.4051L35.2905 56.6767L36.3744 57.3547L36.7022 56.8254L35.6975 56.1952L36.1496 55.468L37.1544 56.0982L37.5475 55.468L36.4649 54.7912L36.9258 54.0464Z" fill="#02242E"/>
<path d="M34.1976 53.6556L35.1723 52.5982L35.9547 53.3242L33.2757 56.2304L32.3275 55.3482C31.5404 54.6189 31.4106 53.9673 31.9381 53.3935C32.2488 53.0574 32.6528 52.949 33.1501 53.0683L33.4729 51.019L34.3609 51.8433L33.9992 53.4703L34.1976 53.6556ZM33.6601 54.2467L33.5131 54.1106C33.2393 53.8585 32.9919 53.851 32.7683 54.0929C32.5833 54.2929 32.6251 54.5172 32.8939 54.7659L33.0497 54.9096L33.6601 54.2467Z" fill="#02242E"/>
<path d="M31.9244 48.9119L32.5524 49.7764L30.0693 51.5951L30.6383 52.3752L29.9337 52.8907L28.1753 50.4671L28.8786 49.9516L29.4451 50.7305L31.9244 48.9119Z" fill="#02242E"/>
<path d="M30.8116 47.1125L27.3112 48.9392L26.8176 47.9848L30.318 46.1581L30.8116 47.1125Z" fill="#02242E"/>
<path d="M29.3648 43.8406L29.7076 44.8365L25.9799 46.1299L25.2175 43.9187L26.0264 43.6388L26.4446 44.8541L27.1568 44.602L26.7699 43.4813L27.5788 43.2001L27.9656 44.3209L29.3648 43.8406Z" fill="#02242E"/>
<path d="M28.6801 41.4083L24.8029 42.1383L24.6045 41.0818L28.4829 40.3531L28.6801 41.4083Z" fill="#02242E"/>
<path d="M28.1967 36.5659L28.2821 38.9145L24.3396 39.0658L24.2542 36.7172L25.1082 36.6857L25.1559 37.9653L25.7751 37.9426L25.7324 36.7575L26.5878 36.726L26.6305 37.9123L27.3752 37.8846L27.3275 36.6037L28.1967 36.5659Z" fill="#02242E"/>
<path d="M26.7322 31.72C27.3815 31.8246 27.855 32.0842 28.1489 32.4989C28.4428 32.9135 28.5395 33.4479 28.4365 34.0982L28.2356 35.3585L24.342 34.7359L24.5543 33.3937C24.6539 32.766 24.8909 32.3073 25.2652 32.0174C25.6382 31.72 26.1243 31.6292 26.7322 31.72ZM26.5953 32.8228C26.2386 32.7648 25.9627 32.7933 25.7676 32.9085C25.6652 32.9745 25.5793 33.0633 25.5166 33.168C25.4539 33.2727 25.416 33.3904 25.4059 33.5121L25.3569 33.8197L27.5398 34.1688L27.5774 33.9331C27.6277 33.613 27.5774 33.3622 27.4104 33.1832C27.2433 33.0042 26.9771 32.8896 26.5953 32.8228Z" fill="#02242E"/>
<path d="M72.6721 33.8516C72.6582 33.7346 72.6143 33.6232 72.5447 33.5282C72.4752 33.4332 72.3823 33.3579 72.2752 33.3095C71.9969 33.1947 71.6907 33.1662 71.396 33.2276C70.6425 33.3411 70.3105 33.6848 70.4 34.2588C70.4255 34.4291 70.4754 34.5947 70.5483 34.7505C70.6233 34.9097 70.7072 35.0646 70.7994 35.2144L69.9077 35.3493C69.708 35.0215 69.5796 34.6551 69.5309 34.274C69.4413 33.6856 69.5435 33.2066 69.8374 32.8368C70.1313 32.467 70.6014 32.2346 71.2478 32.1396C71.6143 32.0756 71.9907 32.0985 72.3468 32.2065C72.6645 32.3049 72.9451 32.4973 73.1519 32.7586C73.3685 33.0418 73.5063 33.3777 73.5513 33.7319C73.6145 34.1516 73.5832 34.5802 73.4596 34.9862L72.5804 34.7883C72.6248 34.6372 72.6601 34.4836 72.6859 34.3282C72.7058 34.1696 72.7012 34.0088 72.6721 33.8516Z" fill="#02242E"/>
<path d="M69.7065 39.0229L69.7857 36.673L73.7294 36.8079L73.6491 39.1566L72.795 39.1276L72.8377 37.848L72.2172 37.8265L72.177 39.0116L71.323 38.9826L71.3632 37.7976L70.6184 37.7723L70.5757 39.0519L69.7065 39.0229Z" fill="#02242E"/>
<path d="M70.7302 41.5861L69.3298 41.2709L69.5659 40.2271L73.413 41.102L73.1266 42.3627C72.8905 43.4124 72.3931 43.8511 71.6345 43.6788C71.1882 43.5763 70.8927 43.2792 70.7478 42.7875L68.8174 43.5313L69.0849 42.3488L70.6699 41.8445L70.7302 41.5861ZM71.5115 41.7639L71.465 41.9643C71.3821 42.3299 71.5014 42.548 71.8229 42.6211C72.0879 42.6816 72.26 42.5329 72.3416 42.1748L72.3881 41.9694L71.5115 41.7639Z" fill="#02242E"/>
<path d="M67.7737 45.9366L68.2045 44.9583L71.0154 46.2076L71.4047 45.3252L72.2023 45.6794L70.9915 48.4239L70.1952 48.0696L70.5833 47.1872L67.7737 45.9366Z" fill="#02242E"/>
<path d="M66.7752 47.8028L70.101 49.9321L69.5246 50.8385L66.1987 48.7092L66.7752 47.8028Z" fill="#02242E"/>
<path d="M64.6753 50.6965L65.3623 49.9L68.344 52.4937L66.8167 54.2582L66.1699 53.6961L67.0102 52.7244L66.4412 52.2316L65.6663 53.1289L65.0207 52.5668L65.7944 51.6695L64.6753 50.6965Z" fill="#02242E"/>
<path d="M62.9244 52.5075L65.4866 55.5121L64.6727 56.2128L62.1055 53.207L62.9244 52.5075Z" fill="#02242E"/>
<path d="M58.9805 55.3496L60.9649 54.1006L63.0611 57.4543L61.0767 58.7032L60.622 57.976L61.7034 57.2955L61.3744 56.7674L60.3696 57.3976L59.9149 56.6704L60.9197 56.0402L60.5241 55.41L59.4427 56.0906L58.9805 55.3496Z" fill="#02242E"/>
<path d="M55.5317 59.0448C55.2955 58.4273 55.2834 57.8866 55.4952 57.4228C55.7071 56.959 56.119 56.6095 56.7311 56.3742L57.923 55.9167L59.3335 59.6082L58.0587 60.0985C57.4675 60.3253 56.953 60.3488 56.5151 60.169C56.0772 59.9892 55.7494 59.6145 55.5317 59.0448ZM56.5515 58.6126C56.6813 58.9486 56.8437 59.1742 57.0388 59.2893C57.1472 59.3451 57.2668 59.3752 57.3886 59.3771C57.5103 59.3791 57.6309 59.353 57.7409 59.3007L58.0311 59.1885L57.241 57.1178L57.0187 57.2035C56.716 57.3195 56.5289 57.4921 56.4548 57.7228C56.3807 57.9534 56.4121 58.2496 56.5515 58.6126Z" fill="#02242E"/>
<path fill-rule="evenodd" clip-rule="evenodd" d="M38.8184 39.7835C39.8106 39.1533 44.4062 36.3806 44.567 36.426C46.1997 37.9384 47.1781 40.8648 47.3213 41.0186C47.4683 40.8686 50.3658 33.5701 58.9793 27.0543C58.9228 27.6757 58.031 31.047 59.1652 34.7422C52.565 38.3971 47.8237 47.0454 47.6328 47.0302C47.4419 47.0151 42.4984 40.9417 38.8184 39.7835Z" fill="black"/>
<path d="M48.992 20.0016L49.8712 21.7888L51.8368 22.0749L50.415 23.4662L50.7503 25.4298L48.992 24.5035L47.2349 25.4298L47.5702 23.4662L46.1484 22.0749L48.114 21.7888L48.992 20.0016Z" fill="black"/>
<path d="M42.9004 21.427L43.5498 22.7453L44.9979 22.9558L43.9492 23.9817L44.1966 25.4297L42.9004 24.7467L41.6043 25.4297L41.8529 23.9817L40.8042 22.9558L42.2523 22.7453L42.9004 21.427Z" fill="black"/>
<path d="M55.0833 21.427L55.7326 22.7453L57.1808 22.9558L56.132 23.9817L56.3795 25.4297L55.0833 24.7467L53.7871 25.4297L54.0358 23.9817L52.9871 22.9558L54.4352 22.7453L55.0833 21.427Z" fill="black"/>
<path d="M48.992 48.6497L49.8712 50.4368L51.8368 50.7229L50.415 52.1143L50.7503 54.0779L48.992 53.1515L47.2349 54.0779L47.5702 52.1143L46.1484 50.7229L48.114 50.4368L48.992 48.6497Z" fill="black"/>
<path d="M42.9004 48.6497L43.5498 49.968L44.9979 50.1785L43.9492 51.2044L44.1966 52.6525L42.9004 51.9694L41.6043 52.6525L41.8529 51.2044L40.8042 50.1785L42.2523 49.968L42.9004 48.6497Z" fill="black"/>
<path d="M55.0833 48.6497L55.7326 49.968L57.1808 50.1785L56.132 51.2044L56.3795 52.6525L55.0833 51.9694L53.7871 52.6525L54.0358 51.2044L52.9871 50.1785L54.4352 49.968L55.0833 48.6497Z" fill="black"/>
<path d="M11.1152 52.8579V67.9817C35.9956 61.8752 61.9699 61.8229 86.8744 67.8292V52.7054C61.9699 46.6992 35.9956 46.7514 11.1152 52.8579Z" fill="#3A3A3A"/>
<path d="M17.4819 56.3539L18.3611 57.9646C19.0142 57.931 19.6685 57.9012 20.3242 57.8751C19.8494 58.4263 19.3755 58.9796 18.9024 59.535L19.2377 61.4343C18.6516 61.2376 18.0655 61.0444 17.4794 60.8545C16.8933 61.283 16.3071 61.7149 15.721 62.1501C15.8324 61.4704 15.9437 60.7915 16.0551 60.1134C15.5845 59.7505 15.1131 59.3896 14.6409 59.0308C15.2915 58.7897 15.9433 58.5532 16.5964 58.3213C16.8945 57.6668 17.1897 57.011 17.4819 56.3539Z" fill="#FFCD00"/>
<path d="M80.8848 56.2267C81.177 56.8812 81.47 57.5361 81.7639 58.1915C82.417 58.4226 83.0693 58.6566 83.7207 58.8935C83.2502 59.2539 82.7783 59.6165 82.3053 59.9811C82.4175 60.6592 82.5288 61.3377 82.6393 62.0165C82.0532 61.583 81.4692 61.1537 80.8873 60.7285C80.3011 60.9218 79.715 61.1175 79.1289 61.3158L79.4642 59.4153C78.9912 58.8607 78.5172 58.3087 78.0425 57.7592C78.6981 57.7836 79.3529 57.8109 80.0068 57.8411L80.8848 56.2267Z" fill="#FFCD00"/>
<path d="M30.878 58.8721C30.8857 59.2191 30.8181 59.5636 30.68 59.8817C30.5418 60.1999 30.3364 60.4841 30.078 60.7147C29.5429 61.205 28.8006 61.5112 27.8511 61.641C26.9719 61.7595 26.202 61.7091 25.5288 61.4822V59.869C25.9878 60.0112 26.4573 60.1166 26.933 60.1841C27.2825 60.2282 27.636 60.2282 27.9855 60.1841C28.3042 60.1577 28.609 60.0415 28.8647 59.8489C28.9646 59.7649 29.044 59.6592 29.0969 59.5397C29.1498 59.4202 29.1748 59.2901 29.1699 59.1595C29.1736 59.0111 29.1261 58.8659 29.0355 58.7486C28.9257 58.6196 28.7912 58.5142 28.6399 58.4386C28.2947 58.2782 27.9393 58.1409 27.576 58.0277C27.1765 57.9103 26.7958 57.7359 26.4457 57.5097C26.1994 57.3341 25.9948 57.106 25.8466 56.8418C25.6886 56.5421 25.6111 56.2064 25.6218 55.8676C25.6134 55.53 25.6746 55.1944 25.8015 54.8817C25.9283 54.569 26.1181 54.2859 26.359 54.0502C26.8501 53.565 27.5296 53.26 28.3987 53.1453C28.8035 53.0884 29.2141 53.0863 29.6195 53.139C30.0324 53.1965 30.4396 53.2897 30.8366 53.4175C30.6498 53.8889 30.4623 54.3606 30.2739 54.8328C29.9185 54.7249 29.5552 54.6448 29.1875 54.5934C28.9068 54.558 28.6228 54.558 28.3422 54.5934C28.0611 54.6172 27.796 54.7343 27.5886 54.9261C27.5046 55.0079 27.4379 55.1058 27.3926 55.2141C27.3472 55.3224 27.3242 55.4388 27.3249 55.5563C27.3197 55.6928 27.3571 55.8276 27.4316 55.9419C27.5204 56.0623 27.6367 56.1596 27.7707 56.2255C28.1289 56.3912 28.4972 56.5339 28.8735 56.6527C29.6409 56.9187 30.1671 57.2224 30.4522 57.5564C30.7513 57.9271 30.903 58.3958 30.878 58.8721Z" fill="#FFCD00"/>
<path d="M39.4074 60.3781C38.8272 60.4143 38.2465 60.4542 37.6654 60.4979V56.9614C36.5769 57.0455 35.4884 57.1371 34.3999 57.2362V60.7651C33.8137 60.8205 33.2318 60.8789 32.6541 60.9402V52.7482C33.2352 52.6877 33.8171 52.6298 34.3999 52.5743V55.7831C35.4884 55.6797 36.5769 55.5881 37.6654 55.5083V52.3109C38.2457 52.2664 38.8263 52.2244 39.4074 52.1849V60.3781Z" fill="#FFCD00"/>
<path d="M46.8353 60.082L46.2362 58.1449C45.2314 58.1651 44.2266 58.1949 43.2218 58.2344C43.0217 58.8906 42.822 59.5485 42.6227 60.2081C41.9939 60.2349 41.3659 60.2656 40.7388 60.3001C41.7101 57.5064 42.6809 54.7215 43.6514 51.9455C44.3648 51.9203 45.0786 51.8993 45.7928 51.8824C46.7683 54.5997 47.7438 57.3261 48.7192 60.0619C48.0921 60.0661 47.4641 60.0728 46.8353 60.082ZM45.8179 56.6981C45.2636 54.9446 44.9517 53.954 44.8822 53.7263C44.8132 53.4969 44.7566 53.3154 44.7328 53.1818C44.608 53.6633 44.2522 54.8564 43.6652 56.7611C44.3828 56.7359 45.1004 56.7149 45.8179 56.6981Z" fill="#FFCD00"/>
<path d="M49.3599 57.6866V56.286C50.3705 56.286 51.382 56.2948 52.3943 56.3125V57.7181C51.3803 57.6963 50.3688 57.6858 49.3599 57.6866Z" fill="#FFCD00"/>
<path d="M59.2581 60.3643C57.3365 60.2467 55.4128 60.1627 53.4869 60.1123V58.9087C54.1785 58.2365 54.8698 57.5644 55.5605 56.8922C56.1747 56.2923 56.5754 55.8839 56.7638 55.6457C56.9292 55.4495 57.0658 55.2305 57.1694 54.9954C57.2524 54.7957 57.295 54.5816 57.295 54.3653C57.3048 54.2283 57.2854 54.0909 57.2382 53.9621C57.191 53.8332 57.117 53.7159 57.0212 53.6179C56.8188 53.4406 56.559 53.3434 56.2903 53.3444C55.9697 53.3307 55.6505 53.3928 55.3583 53.5259C55.0211 53.6831 54.7043 53.8812 54.4151 54.1157L53.4656 52.9751C53.7777 52.7071 54.117 52.4726 54.4779 52.2757C54.7565 52.1379 55.0522 52.0379 55.3571 51.9782C55.7065 51.9105 56.063 51.8859 56.4184 51.9051C56.8903 51.9189 57.3534 52.0368 57.7748 52.2505C58.1506 52.4404 58.4682 52.7287 58.6942 53.0848C58.9135 53.4358 59.0273 53.8427 59.022 54.2569C59.0255 54.6168 58.9572 54.9737 58.8211 55.3067C58.666 55.6638 58.4567 55.9946 58.2006 56.2872C57.7408 56.7922 57.2455 57.2635 56.7186 57.6975C56.3644 58.0126 56.0106 58.3285 55.6573 58.6453V58.7259C56.8563 58.7713 58.0549 58.831 59.2531 58.9049L59.2581 60.3643Z" fill="#FFCD00"/>
<path d="M63.3753 55.4327C64.1716 55.5024 64.8055 55.7835 65.2769 56.2759C65.7479 56.7661 65.9827 57.4001 65.9827 58.1726C65.9827 59.0876 65.7001 59.7606 65.1337 60.1979C64.5672 60.6353 63.7521 60.8054 62.6996 60.7172C61.7827 60.6416 61.0417 60.4412 60.4778 60.1072V58.6112C60.8056 58.8022 61.1535 58.9561 61.5152 59.07C61.8787 59.1921 62.2551 59.2716 62.6368 59.3069C63.7006 59.3951 64.2319 59.0133 64.2319 58.1474C64.2319 57.3219 63.6818 56.8556 62.5815 56.7611C62.3619 56.7451 62.1414 56.7472 61.9222 56.7674C61.725 56.7814 61.5291 56.8088 61.3356 56.8493L60.6411 56.4296C60.7449 55.0458 60.8483 53.6624 60.9513 52.2794C62.4425 52.387 63.9321 52.513 65.42 52.6575V54.1258C64.4404 54.0275 63.4603 53.9384 62.4798 53.8586C62.4287 54.3904 62.3781 54.9223 62.3278 55.4541L62.525 55.4302C62.8076 55.3988 63.0929 55.3997 63.3753 55.4327Z" fill="#FFCD00"/>
<path d="M67.1948 57.5638C67.1948 55.9431 67.5389 54.7765 68.2272 54.064C68.9142 53.3532 69.9441 53.0822 71.3131 53.27C71.6864 53.3135 72.0545 53.3937 72.4121 53.5094V54.8958C72.0931 54.776 71.7621 54.6915 71.4249 54.6437C70.8313 54.5597 70.346 54.5845 69.9692 54.7181C69.6119 54.8338 69.3105 55.0792 69.124 55.4062C68.9356 55.7339 68.825 56.2187 68.7924 56.8606L68.8652 56.8694C69.242 56.2809 69.8298 56.0364 70.645 56.1447C70.9788 56.1781 71.3029 56.2772 71.5986 56.4364C71.8943 56.5955 72.1558 56.8116 72.3682 57.0723C72.7826 57.5916 72.9961 58.2583 72.9961 59.0674C72.9961 59.9421 72.7449 60.5962 72.2564 61.0347C71.7678 61.4733 71.0783 61.6321 70.2029 61.5174C69.6294 61.452 69.0825 61.2388 68.6153 60.8986C68.153 60.551 67.7921 60.0853 67.5703 59.5501C67.3093 58.9213 67.1815 58.2449 67.1948 57.5638ZM70.1627 60.1273C70.5336 60.176 70.8179 60.0899 71.0155 59.869C71.2131 59.648 71.3123 59.3077 71.3131 58.8481C71.3278 58.4995 71.2305 58.1553 71.0356 57.8663C70.9354 57.7355 70.8089 57.6273 70.6644 57.5487C70.5199 57.4701 70.3605 57.4229 70.1966 57.4101C70.0388 57.3835 69.8772 57.3899 69.7221 57.4289C69.5669 57.468 69.4214 57.5388 69.2948 57.6369C69.1772 57.723 69.0817 57.8358 69.0161 57.9662C68.9506 58.0966 68.917 58.2408 68.918 58.3868C68.9103 58.8036 69.0333 59.2123 69.2697 59.5551C69.3678 59.7099 69.4985 59.8413 69.6525 59.9401C69.8066 60.0389 69.9802 60.1028 70.1614 60.1273H70.1627Z" fill="#FFCD00"/>
</svg>
