<svg width="65" height="71" viewBox="0 0 65 71" fill="none" xmlns="http://www.w3.org/2000/svg">
<path d="M32.5123 70.8496C32.3894 70.8496 32.2666 70.8401 32.1452 70.8212H32.1072C31.8995 70.7892 31.6968 70.7305 31.5042 70.6467C17.2633 64.4118 7.31155 52.6663 2.72753 36.6845C-0.700033 24.7304 0.0608012 14.7199 0.0950387 14.3028C0.121698 13.9745 0.215648 13.6552 0.371072 13.3647C0.526496 13.0741 0.740087 12.8184 0.998623 12.6135C1.25716 12.4085 1.55514 12.2587 1.87412 12.1731C2.1931 12.0876 2.52629 12.0683 2.85306 12.1163C4.27377 12.3261 5.70797 12.4319 7.14417 12.433C21.3318 12.433 30.5703 1.82527 30.6616 1.72287C30.8885 1.45811 31.1702 1.24543 31.4874 1.09945C31.8046 0.953463 32.1496 0.877624 32.499 0.877136C32.8487 0.877586 33.1941 0.95379 33.5114 1.10047C33.8286 1.24716 34.1101 1.46082 34.3364 1.72667C34.4277 1.82527 43.6699 12.433 57.8595 12.433C59.2957 12.4319 60.7299 12.3261 62.1506 12.1163C62.4771 12.0689 62.8099 12.0886 63.1284 12.1744C63.4469 12.2602 63.7444 12.4101 64.0026 12.615C64.2607 12.8199 64.4739 13.0754 64.6291 13.3657C64.7843 13.656 64.8781 13.9749 64.9048 14.3028C64.9391 14.7218 65.7018 24.7323 62.2704 36.6902C57.6845 52.6757 47.7309 64.4194 33.4767 70.66C33.1709 70.7938 32.8405 70.8629 32.5066 70.8629L32.5123 70.8496ZM3.87258 16.5005C3.88352 22.9208 4.77955 29.309 6.5355 35.486C10.8418 50.3149 19.5648 60.8601 32.5009 66.8428C45.4351 60.8601 54.1656 50.3187 58.4587 35.4898C60.2154 29.3117 61.1114 22.9221 61.1216 16.5005C60.3227 16.5555 59.5238 16.5821 58.7326 16.5821C45.6329 16.5821 36.3108 9.31366 32.4952 5.70694C28.6758 9.30986 19.3556 16.5821 6.2559 16.5821C5.46463 16.5821 4.66575 16.5555 3.86688 16.5005H3.87258Z" fill="black"/>
<path d="M30.536 51.7636C30.1 51.7641 29.6689 51.6726 29.2709 51.4952C28.8729 51.3177 28.5171 51.0583 28.2269 50.7339L15.8272 36.8911C15.2948 36.2787 15.0255 35.4821 15.0774 34.6734C15.1293 33.8646 15.4983 33.1087 16.1046 32.569C16.711 32.0293 17.506 31.749 18.3178 31.7889C19.1297 31.8287 19.8933 32.1854 20.4436 32.7819L30.536 44.0514L49.0015 23.4257C49.5481 22.8151 50.3156 22.446 51.1351 22.3996C51.9546 22.3532 52.7591 22.6333 53.3715 23.1782C53.984 23.7231 54.3542 24.4882 54.4007 25.3053C54.4473 26.1223 54.1663 26.9243 53.6198 27.5349L32.8433 50.7339C32.5533 51.058 32.1978 51.3173 31.8001 51.4948C31.4025 51.6722 30.9717 51.7638 30.536 51.7636Z" fill="black"/>
</svg>
