<svg width="71" height="26" viewBox="0 0 71 26" fill="none" xmlns="http://www.w3.org/2000/svg">
<path d="M11.4922 25.0441C8.03625 25.0441 5.26876 23.8311 3.18291 21.3983C1.17205 19.0405 0.163208 16.1784 0.163208 12.8052C0.163208 9.43195 1.16523 6.5494 3.18291 4.21201C5.27557 1.77921 8.04989 0.566223 11.4922 0.566223C14.9345 0.566223 17.7293 1.77921 19.8015 4.21201C20.0469 4.49822 20.1628 4.7708 20.1628 5.03657C20.1628 5.37048 19.9787 5.69077 19.6107 5.98379L17.702 7.53069C17.4089 7.77602 17.1295 7.89186 16.8636 7.89186C16.5296 7.89186 16.216 7.71469 15.9297 7.35351C14.8459 5.98379 13.3599 5.30234 11.4718 5.30234C9.5836 5.30234 8.19985 5.95653 7.12966 7.25811C5.95041 8.68917 5.35737 10.5359 5.35737 12.7983C5.35737 15.0608 5.94359 16.962 7.12966 18.3386C8.24756 19.647 9.70629 20.2943 11.5058 20.2943C13.3054 20.2943 14.8459 19.6129 15.9297 18.2432C16.216 17.8888 16.5228 17.7048 16.8636 17.7048C17.1295 17.7048 17.4089 17.8275 17.702 18.066L19.6107 19.6129C19.9787 19.9059 20.1628 20.2262 20.1628 20.5601C20.1628 20.8259 20.0401 21.0985 19.8015 21.3847C17.7157 23.8175 14.9482 25.0305 11.4922 25.0305V25.0441Z" fill="#010101"/>
<path d="M29.174 24.7239H26.427C25.8271 24.7239 25.5272 24.4582 25.5272 23.9198C25.5272 23.7699 25.5477 23.6336 25.5886 23.5109L32.9981 1.902C33.2299 1.22055 33.707 0.879822 34.4227 0.879822H39.576C40.2917 0.879822 40.7689 1.22055 41.0007 1.90882L48.4102 23.5178C48.4511 23.6404 48.4715 23.7767 48.4715 23.913C48.4715 24.4582 48.1716 24.7307 47.5718 24.7307H44.6747C43.959 24.7307 43.4887 24.3968 43.2569 23.7222L40.8916 16.601H32.9572L30.5919 23.7222C30.3601 24.3968 29.883 24.7307 29.1672 24.7307L29.174 24.7239ZM34.5386 11.8512H39.3238L36.9312 4.64827L34.5386 11.8512Z" fill="#010101"/>
<path d="M60.0665 24.7239C59.2213 24.7239 58.8054 24.3082 58.8054 23.4769V5.61593H53.2296C52.3843 5.61593 51.9685 5.20025 51.9685 4.36887V2.12688C51.9685 1.29551 52.3911 0.879822 53.2296 0.879822H69.4392C70.2844 0.879822 70.7002 1.29551 70.7002 2.12688V4.36887C70.7002 5.20025 70.2776 5.61593 69.4392 5.61593H63.8633V23.4769C63.8633 24.3082 63.4407 24.7239 62.6022 24.7239H60.0733H60.0665Z" fill="#010101"/>
</svg>
